<svg xmlns="http://www.w3.org/2000/svg" viewBox="0 0 64 64">
  <defs>
    <linearGradient id="g" x1="0%" y1="0%" x2="100%" y2="100%">
      <stop offset="0%" style="stop-color:#6366f1"/>
      <stop offset="100%" style="stop-color:#4338ca"/>
    </linearGradient>
  </defs>
  <!-- Rounded square background -->
  <rect width="64" height="64" rx="14" fill="url(#g)"/>
  <!-- Stylized F with flame tip -->
  <path d="M18 14 C18 14 28 10 36 18 C40 22 38 28 34 30 L34 30 C38 30 44 33 42 40 C40 47 32 50 32 50 L32 50 C32 50 38 44 34 40 C32 38 28 38 26 40 L26 50 L20 50 L20 14 Z" fill="none"/>
  <!-- Clean geometric F + flame -->
  <rect x="18" y="14" width="6" height="36" rx="3" fill="white"/>
  <rect x="18" y="14" width="22" height="6" rx="3" fill="white"/>
  <rect x="18" y="29" width="17" height="6" rx="3" fill="white"/>
  <!-- Flame dot accent -->
  <circle cx="44" cy="16" r="4" fill="#fbbf24"/>
  <path d="M44 8 C44 8 48 12 47 16 C46 19 44 20 44 20 C44 20 42 18 41 16 C40 13 44 8 44 8Z" fill="#fbbf24" opacity="0.8"/>
</svg>
